REM DIRINDEX 1\2,1\3
REM DIRNAME cjc143,folder01,folder02
TITLE ""
FILE "2000 phrasesTrack04.mp3" MP3
  TRACK 01 AUDIO
    TITLE "2:cjc143_0091"
    INDEX 01 00:00:00
  TRACK 02 AUDIO
    TITLE "0:"
    INDEX 01 00:00:52
  TRACK 03 AUDIO
    TITLE "2:cjc143_0092"
    INDEX 01 00:01:22
  TRACK 04 AUDIO
    TITLE "0:"
    INDEX 01 00:02:49
  TRACK 05 AUDIO
    TITLE "2:cjc143_0093"
    INDEX 01 00:02:63
  TRACK 06 AUDIO
    TITLE "0:"
    INDEX 01 00:04:19
  TRACK 07 AUDIO
    TITLE "2:cjc143_0094"
    INDEX 01 00:04:33
  TRACK 08 AUDIO
    TITLE "0:"
    INDEX 01 00:05:56
  TRACK 09 AUDIO
    TITLE "2:cjc143_0095"
    INDEX 01 00:05:71
  TRACK 10 AUDIO
    TITLE "0:"
    INDEX 01 00:07:19
  TRACK 11 AUDIO
    TITLE "2:cjc143_0096"
    INDEX 01 00:07:35
  TRACK 12 AUDIO
    TITLE "0:"
    INDEX 01 00:08:62
  TRACK 13 AUDIO
    TITLE "2:cjc143_0097"
    INDEX 01 00:08:73
  TRACK 14 AUDIO
    TITLE "0:"
    INDEX 01 00:10:29
  TRACK 15 AUDIO
    TITLE "2:cjc143_0098"
    INDEX 01 00:10:43
  TRACK 16 AUDIO
    TITLE "0:"
    INDEX 01 00:11:74
  TRACK 17 AUDIO
    TITLE "2:cjc143_0099"
    INDEX 01 00:12:12
  TRACK 18 AUDIO
    TITLE "0:"
    INDEX 01 00:13:49
  TRACK 19 AUDIO
    TITLE "2:cjc143_0100"
    INDEX 01 00:13:61
  TRACK 20 AUDIO
    TITLE "0:"
    INDEX 01 00:15:05
  TRACK 21 AUDIO
    TITLE "2:cjc143_0101"
    INDEX 01 00:15:17
  TRACK 22 AUDIO
    TITLE "0:"
    INDEX 01 00:16:34
  TRACK 23 AUDIO
    TITLE "2:cjc143_0102"
    INDEX 01 00:16:49
  TRACK 24 AUDIO
    TITLE "0:"
    INDEX 01 00:18:03
  TRACK 25 AUDIO
    TITLE "2:cjc143_0103"
    INDEX 01 00:18:19
  TRACK 26 AUDIO
    TITLE "0:"
    INDEX 01 00:19:60
  TRACK 27 AUDIO
    TITLE "2:cjc143_0104"
    INDEX 01 00:19:71
  TRACK 28 AUDIO
    TITLE "0:"
    INDEX 01 00:21:25
  TRACK 29 AUDIO
    TITLE "2:cjc143_0105"
    INDEX 01 00:21:39
  TRACK 30 AUDIO
    TITLE "0:"
    INDEX 01 00:23:12
  TRACK 31 AUDIO
    TITLE "2:cjc143_0106"
    INDEX 01 00:23:28
  TRACK 32 AUDIO
    TITLE "0:"
    INDEX 01 00:24:49
  TRACK 33 AUDIO
    TITLE "2:cjc143_0107"
    INDEX 01 00:24:65
  TRACK 34 AUDIO
    TITLE "0:"
    INDEX 01 00:26:09
  TRACK 35 AUDIO
    TITLE "2:cjc143_0108"
    INDEX 01 00:26:15
  TRACK 36 AUDIO
    TITLE "0:"
    INDEX 01 00:27:38
  TRACK 37 AUDIO
    TITLE "2:cjc143_0109"
    INDEX 01 00:27:51
  TRACK 38 AUDIO
    TITLE "0:"
    INDEX 01 00:28:64
  TRACK 39 AUDIO
    TITLE "2:cjc143_0110"
    INDEX 01 00:29:05
  TRACK 40 AUDIO
    TITLE "0:"
    INDEX 01 00:30:24
  TRACK 41 AUDIO
    TITLE "2:cjc143_0111"
    INDEX 01 00:30:36
  TRACK 42 AUDIO
    TITLE "0:"
    INDEX 01 00:31:67
  TRACK 43 AUDIO
    TITLE "2:cjc143_0112"
    INDEX 01 00:32:17
  TRACK 44 AUDIO
    TITLE "0:"
    INDEX 01 00:33:28
  TRACK 45 AUDIO
    TITLE "2:cjc143_0113"
    INDEX 01 00:33:48
  TRACK 46 AUDIO
    TITLE "0:"
    INDEX 01 00:34:57
  TRACK 47 AUDIO
    TITLE "2:cjc143_0114"
    INDEX 01 00:34:71
  TRACK 48 AUDIO
    TITLE "0:"
    INDEX 01 00:36:13
  TRACK 49 AUDIO
    TITLE "2:cjc143_0115"
    INDEX 01 00:36:33
  TRACK 50 AUDIO
    TITLE "0:"
    INDEX 01 00:37:46
  TRACK 51 AUDIO
    TITLE "2:cjc143_0116"
    INDEX 01 00:37:57
  TRACK 52 AUDIO
    TITLE "0:"
    INDEX 01 00:39:03
  TRACK 53 AUDIO
    TITLE "2:cjc143_0117"
    INDEX 01 00:39:17
  TRACK 54 AUDIO
    TITLE "0:"
    INDEX 01 00:40:32
  TRACK 55 AUDIO
    TITLE "2:cjc143_0118"
    INDEX 01 00:40:46
  TRACK 56 AUDIO
    TITLE "0:"
    INDEX 01 00:42:06
  TRACK 57 AUDIO
    TITLE "2:cjc143_0119"
    INDEX 01 00:42:19
  TRACK 58 AUDIO
    TITLE "0:"
    INDEX 01 00:43:40
  TRACK 59 AUDIO
    TITLE "2:cjc143_0120"
    INDEX 01 00:43:52
  TRACK 60 AUDIO
    TITLE "0:"
    INDEX 01 00:44:71
  TRACK 61 AUDIO
    TITLE "2:cjc143_0121"
    INDEX 01 00:45:12
  TRACK 62 AUDIO
    TITLE "0:"
    INDEX 01 00:47:15
  TRACK 63 AUDIO
    TITLE "2:cjc143_0122"
    INDEX 01 00:47:28
  TRACK 64 AUDIO
    TITLE "0:"
    INDEX 01 00:48:49
  TRACK 65 AUDIO
    TITLE "2:cjc143_0123"
    INDEX 01 00:48:57
  TRACK 66 AUDIO
    TITLE "0:"
    INDEX 01 00:50:15
  TRACK 67 AUDIO
    TITLE "2:cjc143_0124"
    INDEX 01 00:50:25
  TRACK 68 AUDIO
    TITLE "0:"
    INDEX 01 00:51:71
  TRACK 69 AUDIO
    TITLE "2:cjc143_0125"
    INDEX 01 00:52:10
  TRACK 70 AUDIO
    TITLE "0:"
    INDEX 01 00:53:29
  TRACK 71 AUDIO
    TITLE "2:cjc143_0126"
    INDEX 01 00:53:74
  TRACK 72 AUDIO
    TITLE "0:"
    INDEX 01 00:55:16
  TRACK 73 AUDIO
    TITLE "2:cjc143_0127"
    INDEX 01 00:55:28
  TRACK 74 AUDIO
    TITLE "0:"
    INDEX 01 00:56:55
  TRACK 75 AUDIO
    TITLE "2:cjc143_0128"
    INDEX 01 00:56:69
  TRACK 76 AUDIO
    TITLE "0:"
    INDEX 01 00:58:17
  TRACK 77 AUDIO
    TITLE "2:cjc143_0129"
    INDEX 01 00:58:32
  TRACK 78 AUDIO
    TITLE "0:"
    INDEX 01 01:00:23
  TRACK 79 AUDIO
    TITLE "2:cjc143_0130"
    INDEX 01 01:00:43
  TRACK 80 AUDIO
    TITLE "0:"
    INDEX 01 01:02:32
  TRACK 81 AUDIO
    TITLE "2:cjc143_0131"
    INDEX 01 01:02:44
  TRACK 82 AUDIO
    TITLE "0:"
    INDEX 01 01:04:17
  TRACK 83 AUDIO
    TITLE "2:cjc143_0132"
    INDEX 01 01:04:29
  TRACK 84 AUDIO
    TITLE "0:"
    INDEX 01 01:05:62
  TRACK 85 AUDIO
    TITLE "2:cjc143_0133"
    INDEX 01 01:06:28
  TRACK 86 AUDIO
    TITLE "0:"
    INDEX 01 01:08:03
  TRACK 87 AUDIO
    TITLE "2:cjc143_0134"
    INDEX 01 01:08:17
  TRACK 88 AUDIO
    TITLE "0:"
    INDEX 01 01:09:71
  TRACK 89 AUDIO
    TITLE "2:cjc143_0135"
    INDEX 01 01:10:10
  TRACK 90 AUDIO
    TITLE "0:"
    INDEX 01 01:11:31
  TRACK 91 AUDIO
    TITLE "2:cjc143_0136"
    INDEX 01 01:11:45
  TRACK 92 AUDIO
    TITLE "0:"
    INDEX 01 01:12:62
  TRACK 93 AUDIO
    TITLE "2:cjc143_0137"
    INDEX 01 01:13:04
  TRACK 94 AUDIO
    TITLE "0:"
    INDEX 01 01:14:23
  TRACK 95 AUDIO
    TITLE "2:cjc143_0138"
    INDEX 01 01:14:35
  TRACK 96 AUDIO
    TITLE "0:"
    INDEX 01 01:15:46
  TRACK 97 AUDIO
    TITLE "2:cjc143_0139"
    INDEX 01 01:15:62
  TRACK 98 AUDIO
    TITLE "0:"
    INDEX 01 01:17:14
  TRACK 99 AUDIO
    TITLE "2:cjc143_0140"
    INDEX 01 01:17:28
  TRACK 100 AUDIO
    TITLE "0:"
    INDEX 01 01:18:49
  TRACK 101 AUDIO
    TITLE "2:cjc143_0141"
    INDEX 01 01:18:62
  TRACK 102 AUDIO
    TITLE "0:"
    INDEX 01 01:20:14
  TRACK 103 AUDIO
    TITLE "2:cjc143_0142"
    INDEX 01 01:20:26
  TRACK 104 AUDIO
    TITLE "0:"
    INDEX 01 01:22:07
  TRACK 105 AUDIO
    TITLE "2:cjc143_0143"
    INDEX 01 01:22:21
  TRACK 106 AUDIO
    TITLE "0:"
    INDEX 01 01:23:40
  TRACK 107 AUDIO
    TITLE "2:cjc143_0144"
    INDEX 01 01:23:52
  TRACK 108 AUDIO
    TITLE "0:"
    INDEX 01 01:25:00
  TRACK 109 AUDIO
    TITLE "2:cjc143_0145"
    INDEX 01 01:25:09
  TRACK 110 AUDIO
    TITLE "0:"
    INDEX 01 01:26:46
  TRACK 111 AUDIO
    TITLE "2:cjc143_0146"
    INDEX 01 01:26:58
  TRACK 112 AUDIO
    TITLE "0:"
    INDEX 01 01:28:37
  TRACK 113 AUDIO
    TITLE "2:cjc143_0147"
    INDEX 01 01:28:49
  TRACK 114 AUDIO
    TITLE "0:"
    INDEX 01 01:29:68
  TRACK 115 AUDIO
    TITLE "2:cjc143_0148"
    INDEX 01 01:30:07
  TRACK 116 AUDIO
    TITLE "0:"
    INDEX 01 01:31:28
  TRACK 117 AUDIO
    TITLE "2:cjc143_0149"
    INDEX 01 01:31:43
  TRACK 118 AUDIO
    TITLE "0:"
    INDEX 01 01:32:68
  TRACK 119 AUDIO
    TITLE "2:cjc143_0150"
    INDEX 01 01:33:03
  TRACK 120 AUDIO
    TITLE "0:"
    INDEX 01 01:34:55
  TRACK 121 AUDIO
    TITLE "2:cjc143_0151"
    INDEX 01 01:34:67
  TRACK 122 AUDIO
    TITLE "0:"
    INDEX 01 01:36:43
  TRACK 123 AUDIO
    TITLE "2:cjc143_0152"
    INDEX 01 01:36:56
  TRACK 124 AUDIO
    TITLE "0:"
    INDEX 01 01:38:10
  TRACK 125 AUDIO
    TITLE "2:cjc143_0153"
    INDEX 01 01:38:24
  TRACK 126 AUDIO
    TITLE "0:"
    INDEX 01 01:39:47
  TRACK 127 AUDIO
    TITLE "2:cjc143_0154"
    INDEX 01 01:39:57
  TRACK 128 AUDIO
    TITLE "0:"
    INDEX 01 01:41:14
  TRACK 129 AUDIO
    TITLE "2:cjc143_0155"
    INDEX 01 01:41:26
  TRACK 130 AUDIO
    TITLE "0:"
    INDEX 01 01:43:03
  TRACK 131 AUDIO
    TITLE "2:cjc143_0156"
    INDEX 01 01:43:56
  TRACK 132 AUDIO
    TITLE "0:"
    INDEX 01 01:45:16
  TRACK 133 AUDIO
    TITLE "2:cjc143_0157"
    INDEX 01 01:45:32
  TRACK 134 AUDIO
    TITLE "0:"
    INDEX 01 01:46:74
  TRACK 135 AUDIO
    TITLE "2:cjc143_0158"
    INDEX 01 01:47:11
  TRACK 136 AUDIO
    TITLE "0:"
    INDEX 01 01:48:44
  TRACK 137 AUDIO
    TITLE "2:cjc143_0159"
    INDEX 01 01:48:61
  TRACK 138 AUDIO
    TITLE "0:"
    INDEX 01 01:50:37
  TRACK 139 AUDIO
    TITLE "2:cjc143_0160"
    INDEX 01 01:50:51
  TRACK 140 AUDIO
    TITLE "0:"
    INDEX 01 01:51:72
  TRACK 141 AUDIO
    TITLE "2:cjc143_0161"
    INDEX 01 01:52:40
  TRACK 142 AUDIO
    TITLE "0:"
    INDEX 01 01:54:23
  TRACK 143 AUDIO
    TITLE "2:cjc143_0162"
    INDEX 01 01:54:37
  TRACK 144 AUDIO
    TITLE "0:"
    INDEX 01 01:55:62
  TRACK 145 AUDIO
    TITLE "2:cjc143_0163"
    INDEX 01 01:55:73
  TRACK 146 AUDIO
    TITLE "0:"
    INDEX 01 01:57:45
  TRACK 147 AUDIO
    TITLE "2:cjc143_0164"
    INDEX 01 01:57:58
  TRACK 148 AUDIO
    TITLE "0:"
    INDEX 01 01:59:08
  TRACK 149 AUDIO
    TITLE "2:cjc143_0165"
    INDEX 01 01:59:20
  TRACK 150 AUDIO
    TITLE "0:"
    INDEX 01 02:00:41
  TRACK 151 AUDIO
    TITLE "2:cjc143_0166"
    INDEX 01 02:00:53
  TRACK 152 AUDIO
    TITLE "0:"
    INDEX 01 02:01:74
  TRACK 153 AUDIO
    TITLE "2:cjc143_0167"
    INDEX 01 02:02:13
  TRACK 154 AUDIO
    TITLE "0:"
    INDEX 01 02:03:26
  TRACK 155 AUDIO
    TITLE "2:cjc143_0168"
    INDEX 01 02:03:69
  TRACK 156 AUDIO
    TITLE "0:"
    INDEX 01 02:05:34
  TRACK 157 AUDIO
    TITLE "2:cjc143_0169"
    INDEX 01 02:05:52
  TRACK 158 AUDIO
    TITLE "0:"
    INDEX 01 02:06:69
  TRACK 159 AUDIO
    TITLE "2:cjc143_0170"
    INDEX 01 02:07:10
  TRACK 160 AUDIO
    TITLE "0:"
    INDEX 01 02:08:37
  TRACK 161 AUDIO
    TITLE "2:cjc143_0171"
    INDEX 01 02:08:52
  TRACK 162 AUDIO
    TITLE "0:"
    INDEX 01 02:10:04
  TRACK 163 AUDIO
    TITLE "2:cjc143_0172"
    INDEX 01 02:10:18
  TRACK 164 AUDIO
    TITLE "0:"
    INDEX 01 02:11:68
  TRACK 165 AUDIO
    TITLE "2:cjc143_0173"
    INDEX 01 02:12:11
  TRACK 166 AUDIO
    TITLE "0:"
    INDEX 01 02:13:30
